# xmcd CD database file generated by LOLA_Freedb v0.9beta0
# 
# Track frame offsets:
#      182
#      13487
#      28965
#      44577
#      60315
#      77440
#      89305
#      101072
#      118307
#      132067
#      146027
#      160502
#      178257
#      190732
#      210395
#      222917
# 
# Disc length: 3176 seconds
# 
# Revision: 0 
# Processed by: cddbd v1.5.1PL0 Copyright (c) Steve Scherf et al.
# Submitted via: LOLA_Freedb v0.9beta0
# 
DISCID=e30c6610
DTITLE=Dwight Yoakam - Live USA
DYEAR=1900
DGENRE=
TTITLE0=Dwight Yoakam - Guitars, Cadillacs And Hillbilly Music
TTITLE1=Dwight Yoakam - Down The Road
TTITLE2=Dwight Yoakam - Please, Please Baby
TTITLE3=Dwight Yoakam - Readin`, Rightin´ And Route 23
TTITLE4=Dwight Yoakam - Walkin´ After Midnight
TTITLE5=Dwight Yoakam - I´ll Be Gone
TTITLE6=Dwight Yoakam - Honky Tonk Man
TTITLE7=Dwight Yoakam - My Bucket´s Got A Hole In It
TTITLE8=Dwight Yoakam - Little Ways
TTITLE9=Dwight Yoakam - Little Sister
TTITLE10=Dwight Yoakam - Ring Of Fire
TTITLE11=Dwight Yoakam - The Road Is Rocky
TTITLE12=Dwight Yoakam - Twenty Years
TTITLE13=Dwight Yoakam - South Of Cincinatti
TTITLE14=Dwight Yoakam - Bury Me
TTITLE15=Dwight Yoakam - Jambalaya
EXTD=
EXTT0=
EXTT1=
EXTT2=
EXTT3=
EXTT4=
EXTT5=
EXTT6=
EXTT7=
EXTT8=
EXTT9=
EXTT10=
EXTT11=
EXTT12=
EXTT13=
EXTT14=
EXTT15=
PLAYORDER=
